<svg xmlns="http://www.w3.org/2000/svg" id="canvas" viewBox="609.655 254.401 406.111 215.956"><path d="M 680.47,303.97 C 679.64 304.96, 679.33 306.24, 678.64 309.28 C 677.95 312.33, 678.06 314.17, 677.02 319.20 C 675.98 324.22, 675.30 327.72, 673.45 334.42 C 671.59 341.11, 670.54 344.93, 667.74 352.66 C 664.93 360.39, 663.06 364.79, 659.42 373.08 C 655.77 381.38, 653.61 385.90, 649.53 394.13 C 645.44 402.36, 643.05 406.72, 638.98 414.22 C 634.91 421.72, 632.75 425.56, 629.18 431.63 C 625.62 437.70, 623.80 440.53, 621.17 444.56 C 618.53 448.59, 617.09 450.07, 615.99 451.76 C 614.89 453.46, 615.44 453.93, 615.65 453.02 C 615.85 452.10, 616.21 450.91, 617.01 447.18 C 617.81 443.45, 617.93 440.47, 619.64 434.35 C 621.36 428.23, 622.62 424.32, 625.58 416.59 C 628.54 408.87, 630.33 404.54, 634.45 395.73 C 638.58 386.91, 640.92 381.93, 646.22 372.53 C 651.51 363.12, 654.50 358.11, 660.93 348.71 C 667.35 339.32, 670.83 334.50, 678.34 325.54 C 685.86 316.59, 689.99 311.95, 698.50 303.95 C 707.01 295.95, 711.70 292.03, 720.91 285.55 C 730.11 279.07, 735.33 276.09, 744.54 271.54 C 753.76 266.99, 758.48 265.18, 766.98 262.80 C 775.48 260.41, 779.91 259.86, 787.05 259.61 C 794.19 259.35, 797.57 259.98, 802.67 261.52 C 807.78 263.07, 809.96 264.34, 812.58 267.33 C 815.20 270.32, 816.06 272.03, 815.77 276.48 C 815.48 280.94, 814.64 283.75, 811.11 289.60 C 807.59 295.46, 804.84 298.95, 798.15 305.76 C 791.46 312.56, 786.93 316.41, 777.68 323.65 C 768.44 330.88, 762.68 334.90, 751.93 341.95 C 741.17 349.00, 734.79 352.68, 723.90 358.89 C 713.01 365.10, 707.14 368.05, 697.48 373.00 C 687.83 377.94, 683.20 380.25, 675.60 383.61 C 668.01 386.98, 664.42 388.29, 659.49 389.84 C 654.56 391.39, 653.14 390.93, 650.95 391.38 C 648.77 391.82, 648.96 392.15, 648.55 392.06 C 648.13 391.98, 649.04 391.19, 648.88 390.94 C 648.72 390.70, 647.99 390.39, 647.76 390.83 C 647.54 391.27, 647.03 392.41, 647.76 393.15 C 648.48 393.89, 648.87 394.72, 651.38 394.53 C 653.89 394.34, 655.30 394.04, 660.30 392.19 C 665.30 390.34, 668.79 388.85, 676.37 385.28 C 683.95 381.72, 688.54 379.39, 698.19 374.36 C 707.83 369.33, 713.70 366.37, 724.60 360.13 C 735.51 353.89, 741.91 350.21, 752.72 343.18 C 763.54 336.14, 769.32 332.14, 778.69 324.94 C 788.05 317.73, 792.65 313.97, 799.55 307.15 C 806.45 300.34, 809.38 296.97, 813.18 290.87 C 816.98 284.77, 818.25 281.73, 818.56 276.66 C 818.86 271.58, 817.73 268.99, 814.70 265.49 C 811.66 261.98, 808.92 260.73, 803.38 259.14 C 797.83 257.55, 794.34 257.15, 786.96 257.54 C 779.58 257.93, 775.12 258.58, 766.49 261.09 C 757.87 263.61, 753.13 265.47, 743.84 270.12 C 734.55 274.77, 729.31 277.77, 720.04 284.33 C 710.78 290.88, 706.07 294.84, 697.50 302.89 C 688.94 310.94, 684.79 315.61, 677.22 324.60 C 669.65 333.59, 666.15 338.42, 659.66 347.84 C 653.17 357.26, 650.15 362.29, 644.77 371.70 C 639.38 381.12, 637.01 386.10, 632.73 394.90 C 628.45 403.70, 626.61 408.01, 623.37 415.70 C 620.13 423.40, 618.62 427.23, 616.53 433.38 C 614.44 439.54, 613.49 442.41, 612.93 446.47 C 612.37 450.53, 612.68 452.20, 613.73 453.69 C 614.79 455.18, 616.22 455.43, 618.21 453.92 C 620.21 452.41, 621.10 450.39, 623.69 446.16 C 626.29 441.93, 627.77 438.97, 631.19 432.77 C 634.60 426.57, 636.74 422.73, 640.76 415.17 C 644.77 407.62, 647.16 403.25, 651.26 394.99 C 655.37 386.74, 657.54 382.21, 661.26 373.90 C 664.99 365.60, 666.91 361.20, 669.89 353.47 C 672.88 345.73, 674.05 341.92, 676.19 335.24 C 678.33 328.56, 679.24 325.09, 680.62 320.06 C 681.99 315.03, 682.63 313.24, 683.06 310.09 C 683.50 306.93, 683.31 305.52, 682.79 304.29 C 682.27 303.07, 681.30 302.97, 680.47 303.97" style="stroke: black; fill: black;"/><path d="M 807.06,396.41 C 806.08 395.83, 805.09 395.16, 802.41 395.64 C 799.72 396.11, 798.05 396.90, 793.63 398.79 C 789.20 400.68, 786.04 401.83, 780.28 405.08 C 774.52 408.34, 770.97 410.74, 764.80 415.06 C 758.63 419.38, 754.87 421.90, 749.44 426.68 C 744.01 431.47, 741.15 434.27, 737.66 438.97 C 734.17 443.67, 732.58 446.23, 731.99 450.19 C 731.40 454.15, 732.01 456.73, 734.73 458.77 C 737.45 460.80, 740.01 460.99, 745.60 460.38 C 751.18 459.77, 754.60 458.87, 762.65 455.71 C 770.71 452.55, 775.64 450.26, 785.87 444.59 C 796.10 438.92, 802.08 435.17, 813.81 427.36 C 825.54 419.54, 832.12 414.98, 844.53 405.52 C 856.93 396.06, 863.65 390.47, 875.85 380.04 C 888.04 369.62, 894.44 363.81, 905.52 353.40 C 916.60 343.00, 922.32 337.61, 931.22 328.02 C 940.13 318.42, 944.11 313.51, 950.07 305.44 C 956.03 297.37, 958.29 293.71, 961.03 287.65 C 963.76 281.58, 964.45 278.96, 963.73 275.11 C 963.01 271.25, 961.33 269.43, 957.43 268.36 C 953.53 267.29, 950.64 267.66, 944.22 269.77 C 937.80 271.88, 933.62 273.83, 925.33 278.92 C 917.05 284.01, 912.05 287.53, 902.79 295.22 C 893.54 302.91, 888.13 307.86, 879.05 317.37 C 869.98 326.87, 865.23 332.46, 857.43 342.75 C 849.62 353.03, 845.93 358.81, 840.02 368.77 C 834.11 378.73, 831.66 383.90, 827.88 392.52 C 824.11 401.15, 822.82 405.13, 821.15 411.91 C 819.48 418.68, 819.05 421.62, 819.53 426.41 C 820.02 431.20, 820.91 433.33, 823.59 435.85 C 826.26 438.37, 828.47 438.72, 832.90 439.00 C 837.33 439.29, 840.18 438.42, 845.75 437.28 C 851.31 436.13, 854.63 434.90, 860.74 433.27 C 866.84 431.64, 870.68 430.37, 876.27 429.12 C 881.86 427.88, 884.88 427.31, 888.70 427.05 C 892.52 426.78, 893.72 426.99, 895.38 427.78 C 897.05 428.58, 896.99 429.08, 897.04 431.00 C 897.10 432.93, 896.18 434.37, 895.66 437.40 C 895.15 440.44, 894.41 442.60, 894.47 446.19 C 894.53 449.78, 894.49 452.09, 895.97 455.35 C 897.44 458.61, 898.66 460.27, 901.86 462.49 C 905.06 464.72, 907.11 465.53, 911.98 466.48 C 916.85 467.42, 919.95 467.49, 926.21 467.22 C 932.47 466.95, 936.29 466.31, 943.28 465.13 C 950.27 463.94, 954.15 462.89, 961.15 461.30 C 968.16 459.71, 971.92 458.77, 978.30 457.17 C 984.69 455.58, 987.91 454.65, 993.07 453.33 C 998.23 452.01, 1000.65 451.52, 1004.10 450.57 C 1007.56 449.62, 1008.67 449.44, 1010.35 448.59 C 1012.04 447.74, 1012.06 447.02, 1012.51 446.31 C 1012.96 445.61, 1012.70 445.38, 1012.60 445.07 C 1012.49 444.76, 1012.22 444.81, 1011.98 444.77 C 1011.75 444.72, 1011.99 444.79, 1011.41 444.86 C 1010.83 444.94, 1010.77 444.76, 1009.09 445.15 C 1007.40 445.54, 1006.37 445.75, 1003.00 446.81 C 999.63 447.86, 997.32 448.85, 992.25 450.41 C 987.18 451.98, 983.98 452.95, 977.65 454.63 C 971.32 456.31, 967.55 457.25, 960.59 458.82 C 953.63 460.38, 949.74 461.39, 942.85 462.45 C 935.95 463.50, 932.14 464.02, 926.12 464.11 C 920.10 464.20, 917.09 463.92, 912.74 462.91 C 908.39 461.89, 906.81 460.92, 904.38 459.03 C 901.94 457.15, 901.43 456.05, 900.56 453.50 C 899.70 450.94, 899.92 449.34, 900.06 446.26 C 900.20 443.17, 901.04 441.28, 901.26 438.06 C 901.48 434.85, 902.02 432.89, 901.17 430.19 C 900.32 427.50, 899.55 425.95, 897.01 424.60 C 894.47 423.24, 892.75 423.15, 888.46 423.42 C 884.16 423.70, 881.25 424.62, 875.54 425.98 C 869.84 427.34, 866.02 428.61, 859.92 430.21 C 853.83 431.81, 850.45 432.92, 845.08 433.99 C 839.71 435.05, 836.93 435.64, 833.06 435.54 C 829.19 435.44, 827.92 435.36, 825.74 433.48 C 823.56 431.59, 822.67 430.34, 822.15 426.12 C 821.63 421.90, 821.69 418.96, 823.14 412.37 C 824.60 405.78, 825.78 401.75, 829.40 393.18 C 833.03 384.61, 835.45 379.43, 841.27 369.51 C 847.09 359.59, 850.76 353.81, 858.52 343.58 C 866.29 333.35, 871.03 327.78, 880.09 318.36 C 889.15 308.94, 894.58 304.03, 903.84 296.49 C 913.10 288.96, 918.16 285.54, 926.40 280.68 C 934.63 275.83, 938.94 274.14, 945.01 272.22 C 951.08 270.31, 953.52 270.44, 956.77 271.10 C 960.01 271.76, 960.75 272.39, 961.24 275.54 C 961.74 278.69, 961.71 281.05, 959.23 286.86 C 956.75 292.66, 954.63 296.49, 948.85 304.55 C 943.07 312.62, 939.13 317.56, 930.30 327.17 C 921.48 336.77, 915.78 342.17, 904.74 352.57 C 893.70 362.98, 887.31 368.79, 875.12 379.20 C 862.93 389.60, 856.22 395.17, 843.81 404.58 C 831.40 413.99, 824.81 418.52, 813.06 426.23 C 801.31 433.93, 795.30 437.63, 785.06 443.11 C 774.82 448.58, 769.81 450.73, 761.86 453.61 C 753.91 456.49, 750.34 457.01, 745.30 457.50 C 740.25 458.00, 738.68 457.43, 736.65 456.08 C 734.62 454.73, 734.49 453.83, 735.15 450.75 C 735.81 447.67, 736.76 445.08, 739.96 440.66 C 743.16 436.23, 745.88 433.30, 751.15 428.62 C 756.43 423.95, 760.20 421.41, 766.32 417.27 C 772.45 413.12, 776.03 410.82, 781.79 407.90 C 787.55 404.98, 790.75 404.15, 795.12 402.65 C 799.48 401.15, 801.17 401.23, 803.61 400.41 C 806.06 399.59, 806.65 399.35, 807.34 398.55 C 808.03 397.75, 808.05 396.99, 807.06 396.41" style="stroke: black; fill: black;"/></svg>